<svg width="17" height="15" fill="none" xmlns="http://www.w3.org/2000/svg"><path d="m11.247 9.883-.007.002a2.763 2.763 0 0 1-4.893.6c-.054.004-.106.004-.157.004-1.425 0-2.471-.174-2.966-.282A5.564 5.564 0 0 0 14.207 8.95v-.054c-.8.357-1.779.705-2.96.99v-.002Zm-5.896 3.173a5.3 5.3 0 0 1-1.456-1.834l.92-.44c.273.57.68 1.08 1.174 1.478l-.638.796Zm3.292 1.156c-.4 0-.8-.045-1.186-.134l.229-.994a4.3 4.3 0 0 0 1.889.005l.222.996a5.292 5.292 0 0 1-1.154.127Zm3.268-1.137-.634-.8a4.287 4.287 0 0 0 1.183-1.471l.918.447a5.324 5.324 0 0 1-1.467 1.824Z" fill="red"/><path d="M16.382 5.466c-.095-.66-.687-1.133-1.367-1.46-.677-.326-1.442-.51-1.874-.595l.184 1.313s-.594.317-.864.436c-.261.115-.812.33-.813.33-.86.306-1.827.548-2.898.72h-.002c-.132.021-.264.038-.4.058-.335.05-.962.109-.965.11-1.08.105-2.08.101-2.983 0h-.004c-.44-.048-1.258-.222-1.258-.222L2.954 4.84c-.257.13-.72.407-.741.421C.933 6.071.298 6.938.406 7.714c.216 1.539 3.018 1.894 3.286 1.935.002 0 .953.16 2.075.16 0 0 1.447.018 3.05-.207 1.69-.237 2.832-.552 3.808-.906.002-.001 1.024-.405 1.278-.526 1.65-.79 2.612-1.765 2.48-2.704Z" fill="red"/><path d="M2.954 4.84c.13.042 1.79.448 3.248.39.006 0 .585-.008 1.235-.072 0 0 .34-.034.742-.09a33.774 33.774 0 0 0 1.447-.263c.682-.15 1.125-.29 1.432-.396a9.93 9.93 0 0 0 1.395-.594c.126-.067.584-.33.687-.403l-.083-.58A2.688 2.688 0 0 0 10.02.546l-4.86.684a2.686 2.686 0 0 0-2.286 3.037l.079.573Z" fill="red"/></svg>