<svg width="126" height="24" viewBox="0 0 126 24" fill="none" xmlns="http://www.w3.org/2000/svg">
<path d="M74.06 16.0613C74.0562 16.062 74.0517 16.0628 74.048 16.0635C73.3895 17.889 71.6465 19.197 69.5937 19.197C67.952 19.197 66.506 18.3615 65.6555 17.0933C65.6555 17.0933 65.6548 17.0933 65.654 17.0933C65.561 17.0993 65.4733 17.0993 65.3855 17.0993C62.9405 17.0993 61.1473 16.8015 60.299 16.6155C61.2793 20.8448 65.0645 24 69.5908 24C74.864 24 79.1337 19.7243 79.1337 14.457V14.364C77.7635 14.9775 76.0842 15.5738 74.06 16.0613ZM63.947 21.501C62.8948 20.6573 62.0315 19.5698 61.4495 18.357L63.0275 17.6003C63.4963 18.5783 64.193 19.455 65.042 20.136L63.947 21.501ZM69.5937 23.4855C68.906 23.4855 68.222 23.4075 67.5598 23.2553L67.9528 21.5498C69.0035 21.7928 70.133 21.7965 71.192 21.5603L71.5737 23.268C70.928 23.4128 70.262 23.4863 69.5945 23.4863L69.5937 23.4855ZM75.1977 21.5355L74.111 20.1645C74.963 19.4888 75.665 18.6158 76.1405 17.6408L77.714 18.408C77.1237 19.617 76.2537 20.6978 75.1977 21.5355Z" fill="#FF0000"/>
<path d="M82.8664 8.48403C82.7029 7.35229 81.6882 6.54154 80.5212 5.98129C79.3602 5.42104 78.0477 5.10604 77.3075 4.96054L77.6225 7.21204C77.6225 7.21204 76.604 7.75429 76.1405 7.95829C75.6927 8.15553 74.7492 8.52528 74.747 8.52603C73.2725 9.05028 71.612 9.46353 69.7768 9.76128C69.7753 9.76128 69.7745 9.76128 69.773 9.76128C69.5465 9.79578 69.3208 9.82503 69.0883 9.86028C68.513 9.94653 67.436 10.0463 67.4315 10.047C65.579 10.2278 63.866 10.2218 62.3158 10.047C62.3135 10.047 62.312 10.047 62.3098 10.047C61.556 9.96603 60.1513 9.66753 60.1513 9.66753L59.8363 7.41004C59.396 7.63354 58.6033 8.10903 58.565 8.13303C56.3721 9.52128 55.2808 11.0085 55.4676 12.339C55.8381 14.9783 60.6433 15.5873 61.1023 15.6578C61.106 15.6578 62.7373 15.9323 64.6603 15.9323C64.6618 15.9323 67.1428 15.963 69.8922 15.5768C72.7895 15.1695 74.7492 14.631 76.421 14.0228C76.4247 14.0213 78.1775 13.329 78.6125 13.1213C81.4415 11.7683 83.0922 10.0935 82.8649 8.48403H82.8664Z" fill="#FF0000"/>
<path d="M59.8378 7.41079C60.062 7.48279 62.9083 8.17953 65.4088 8.08128C65.4178 8.08128 66.4123 8.06553 67.5253 7.95604C67.5253 7.95604 68.1103 7.89753 68.7988 7.80004C69.6763 7.67554 71.2805 7.35004 71.2805 7.35004C72.4505 7.09429 73.2117 6.85204 73.7375 6.66979C74.7117 6.33229 75.5045 5.98279 76.1285 5.65204C76.346 5.53729 77.1305 5.08504 77.3075 4.96054L77.165 3.96679C76.8087 1.45055 74.48 -0.310446 71.9577 0.0458029L63.6223 1.21955C61.1 1.5758 59.345 3.90454 59.7013 6.42679L59.837 7.41079H59.8378Z" fill="#FF0000"/>
<path d="M0 12.6128C0 8.15633 2.79374 5.16909 6.88197 5.16909C9.83846 5.16909 12.1177 6.70208 13.1422 9.22508C13.2007 9.36983 13.1234 9.53708 12.9764 9.59032L10.7407 10.4018C10.6012 10.4521 10.452 10.3808 10.3935 10.2443C9.77396 8.80433 8.54322 7.96358 6.88197 7.96358C4.46548 7.96358 2.92574 9.71708 2.92574 12.6136C2.92574 15.5296 4.46548 17.2831 6.88197 17.2831C8.54322 17.2831 9.77471 16.4416 10.3935 15.0016C10.452 14.8658 10.6005 14.7938 10.74 14.8441L12.9749 15.6473C13.1227 15.7006 13.2007 15.8678 13.1414 16.0126C12.117 18.5356 9.83771 20.0768 6.88197 20.0768C2.80349 20.0768 0 17.0896 0 12.6136V12.6128Z" fill="white"/>
<path d="M21.4859 5.51633C21.5984 5.51633 21.6997 5.58458 21.7424 5.68883L27.3179 19.3486C27.3921 19.5308 27.2579 19.7303 27.0614 19.7303H24.4844C24.3689 19.7303 24.2654 19.6583 24.2249 19.5503L23.3909 17.3198C23.3504 17.2118 23.2469 17.1398 23.1314 17.1398H18.0502C17.9347 17.1398 17.8319 17.2111 17.7907 17.3191L16.9469 19.5511C16.9064 19.6591 16.8029 19.7303 16.6874 19.7303H14.1097C13.9124 19.7303 13.7789 19.5308 13.8532 19.3486L19.4384 5.68883C19.4812 5.58458 19.5824 5.51633 19.6949 5.51633H21.4859ZM22.2164 14.1556L20.8702 10.5421C20.7809 10.3021 20.4419 10.3013 20.3512 10.5413L18.9899 14.1548C18.9217 14.3363 19.0559 14.5298 19.2494 14.5298H21.9577C22.1512 14.5298 22.2847 14.3371 22.2172 14.1563L22.2164 14.1556Z" fill="white"/>
<path d="M29.0549 5.79308C29.0549 5.64008 29.1786 5.51633 29.3316 5.51633H33.8976C37.1399 5.51633 38.7921 6.88283 38.7921 9.66607C38.7921 12.4493 37.0993 13.9388 33.8976 13.9388H32.2274C32.0744 13.9388 31.9506 14.0626 31.9506 14.2156V19.4528C31.9506 19.6058 31.8269 19.7296 31.6739 19.7296H29.3316C29.1786 19.7296 29.0549 19.6058 29.0549 19.4528V5.79308ZM33.6029 11.3378C35.0406 11.3378 35.8769 10.9501 35.8769 9.69682C35.8769 8.50358 35.1321 8.12633 33.6029 8.12633H32.2281C32.0751 8.12633 31.9514 8.25008 31.9514 8.40308V11.0603C31.9514 11.2133 32.0751 11.3371 32.2281 11.3371L33.6029 11.3378Z" fill="white"/>
<path d="M40.1743 12.6331C40.1743 8.15633 42.9786 5.16909 47.0563 5.16909C51.176 5.16909 53.96 8.13608 53.96 12.6331C53.96 17.1301 51.1355 20.076 47.0563 20.076C42.9771 20.076 40.1743 17.0888 40.1743 12.6331ZM47.0563 17.2823C49.4833 17.2823 51.0125 15.4883 51.0125 12.6331C51.0125 9.75757 49.4826 7.96283 47.0563 7.96283C44.6301 7.96283 43.1001 9.71632 43.1001 12.6331C43.1001 15.5288 44.6398 17.2823 47.0563 17.2823Z" fill="white"/>
<path d="M83.8347 15.5468L86.1454 14.9753C86.2977 14.9378 86.4454 15.0368 86.4814 15.1891C86.8332 16.6823 87.8569 17.4241 89.2789 17.4241C90.4204 17.4241 91.3181 16.8226 91.3181 15.7928C91.3181 14.8448 90.5021 14.3446 88.6669 13.6516C85.8627 12.5708 84.5682 11.3273 84.5682 9.14483C84.5682 6.82058 86.3937 5.16833 89.1364 5.16833C90.9866 5.16833 92.4926 5.99558 93.4151 7.62458C93.4886 7.75358 93.4414 7.92158 93.3146 7.99883L91.4516 9.13433C91.3219 9.21383 91.1561 9.16883 91.0729 9.04058C90.5411 8.21933 89.8571 7.75808 89.0449 7.75808C88.1779 7.75808 87.4849 8.30858 87.4849 9.08408C87.4849 9.90982 88.1374 10.4296 90.1766 11.1946C92.8481 12.2041 94.2146 13.3868 94.2146 15.6091C94.2146 18.1786 92.2061 20.0138 89.1784 20.0138C86.1807 20.0138 84.1362 18.3931 83.6269 15.8701C83.5977 15.7253 83.6929 15.5813 83.8362 15.5461L83.8347 15.5468Z" fill="white"/>
<path d="M96.3536 5.79308C96.3536 5.64008 96.4774 5.51633 96.6304 5.51633H101.196C104.439 5.51633 106.091 6.88283 106.091 9.66607C106.091 12.4493 104.398 13.9388 101.196 13.9388H99.5261C99.3731 13.9388 99.2494 14.0626 99.2494 14.2156V19.4528C99.2494 19.6058 99.1256 19.7296 98.9726 19.7296H96.6304C96.4774 19.7296 96.3536 19.6058 96.3536 19.4528V5.79308ZM100.902 11.3378C102.339 11.3378 103.176 10.9501 103.176 9.69682C103.176 8.50358 102.431 8.12633 100.902 8.12633H99.5269C99.3739 8.12633 99.2501 8.25008 99.2501 8.40308V11.0603C99.2501 11.2133 99.3739 11.3371 99.5269 11.3371L100.902 11.3378Z" fill="white"/>
<path d="M108.118 5.51633H110.481C110.634 5.51633 110.757 5.64008 110.757 5.79308V19.4528C110.757 19.6058 110.634 19.7296 110.481 19.7296H108.118C107.965 19.7296 107.841 19.6058 107.841 19.4528V5.79308C107.841 5.64008 107.965 5.51633 108.118 5.51633Z" fill="white"/>
<path d="M113.91 5.51633H116.466C116.562 5.51633 116.652 5.56583 116.702 5.64758L121.777 13.8721C121.923 14.1098 122.29 14.0056 122.29 13.7266V5.79308C122.29 5.64008 122.414 5.51633 122.567 5.51633H124.929C125.082 5.51633 125.205 5.64008 125.205 5.79308V19.4528C125.205 19.6058 125.082 19.7296 124.929 19.7296H122.353C122.256 19.7296 122.167 19.6793 122.117 19.5976L117.063 11.3498C116.916 11.1113 116.55 11.2148 116.55 11.4946V19.4528C116.55 19.6058 116.426 19.7296 116.273 19.7296H113.91C113.757 19.7296 113.634 19.6058 113.634 19.4528V5.79308C113.634 5.64008 113.757 5.51633 113.91 5.51633Z" fill="white"/>
</svg>
