<svg width="70" height="24" viewBox="0 0 70 24" fill="none" xmlns="http://www.w3.org/2000/svg">
<path d="M29.6855 6.43873C29.6855 3.14768 31.7485 0.94165 34.7685 0.94165C36.9516 0.94165 38.6356 2.07367 39.3916 3.93669C39.4346 4.0437 39.3776 4.1667 39.2686 4.2067L37.6176 4.80571C37.5146 4.84271 37.4046 4.78971 37.3616 4.68971C36.9046 3.62669 35.9956 3.00468 34.7685 3.00468C32.9835 3.00468 31.8465 4.2997 31.8465 6.43873C31.8465 8.59176 32.9835 9.88778 34.7685 9.88778C35.9956 9.88778 36.9046 9.26677 37.3616 8.20276C37.4046 8.10276 37.5146 8.04976 37.6176 8.08676L39.2686 8.67976C39.3776 8.71876 39.4356 8.84277 39.3916 8.94977C38.6346 10.8128 36.9516 11.9518 34.7685 11.9518C31.7565 11.9518 29.6855 9.74478 29.6855 6.43873Z" fill="white"/>
<path d="M44.2317 1.19765H45.5537C45.6367 1.19765 45.7117 1.24765 45.7427 1.32466L49.8608 11.4128C49.9158 11.5478 49.8168 11.6948 49.6718 11.6948H47.7687C47.6837 11.6948 47.6067 11.6418 47.5767 11.5618L46.9607 9.91478C46.9307 9.83478 46.8547 9.78178 46.7687 9.78178H43.0157C42.9307 9.78178 42.8547 9.83478 42.8247 9.91378L42.2016 11.5618C42.1716 11.6418 42.0956 11.6938 42.0106 11.6938H40.1066C39.9616 11.6938 39.8626 11.5468 39.9176 11.4118L44.0427 1.32366C44.0737 1.24665 44.1487 1.19665 44.2317 1.19665V1.19765ZM46.0927 7.57775L45.0987 4.90871C45.0327 4.73171 44.7827 4.73071 44.7157 4.90871L43.7097 7.57775C43.6597 7.71175 43.7577 7.85475 43.9007 7.85475H45.9007C46.0437 7.85475 46.1427 7.71175 46.0927 7.57775Z" fill="white"/>
<path d="M51.1428 1.40266C51.1428 1.28966 51.2348 1.19765 51.3478 1.19765H54.7198C57.1139 1.19765 58.3339 2.20667 58.3339 4.2627C58.3339 6.31873 57.0839 7.41775 54.7198 7.41775H53.4858C53.3728 7.41775 53.2808 7.50975 53.2808 7.62275V11.4908C53.2808 11.6038 53.1888 11.6958 53.0758 11.6958H51.3468C51.2338 11.6958 51.1418 11.6038 51.1418 11.4908L51.1428 1.40266ZM54.5018 5.49772C55.5638 5.49772 56.1809 5.21171 56.1809 4.2857C56.1809 3.40469 55.6308 3.12568 54.5018 3.12568H53.4868C53.3738 3.12568 53.2818 3.21768 53.2818 3.33069V5.29271C53.2818 5.40572 53.3738 5.49772 53.4868 5.49772H54.5018Z" fill="white"/>
<path d="M59.3549 6.45373C59.3549 3.14768 61.4259 0.94165 64.438 0.94165C67.48 0.94165 69.536 3.13268 69.536 6.45373C69.536 9.77478 67.45 11.9508 64.438 11.9508C61.4259 11.9508 59.3549 9.74478 59.3549 6.45373ZM64.438 9.88678C66.23 9.88678 67.36 8.56176 67.36 6.45373C67.36 4.3297 66.23 3.00468 64.438 3.00468C62.6459 3.00468 61.5159 4.2997 61.5159 6.45373C61.5159 8.59176 62.6529 9.88678 64.438 9.88678Z" fill="white"/>
<path d="M29.7035 20.6999L31.4095 20.2779C31.5215 20.2499 31.6305 20.3229 31.6575 20.4359C31.9175 21.539 32.6735 22.087 33.7235 22.087C34.5665 22.087 35.2295 21.643 35.2295 20.8819C35.2295 20.1819 34.6265 19.8129 33.2715 19.3009C31.2005 18.5029 30.2445 17.5839 30.2445 15.9729C30.2445 14.2558 31.5925 13.0358 33.6175 13.0358C34.9835 13.0358 36.0966 13.6468 36.7776 14.8499C36.8316 14.9449 36.7966 15.0689 36.7036 15.1259L35.3275 15.9649C35.2315 16.0239 35.1095 15.9899 35.0475 15.8959C34.6545 15.2899 34.1495 14.9489 33.5495 14.9489C32.9095 14.9489 32.3975 15.3559 32.3975 15.9279C32.3975 16.5379 32.8795 16.9219 34.3855 17.4869C36.3586 18.2319 37.3676 19.1059 37.3676 20.7469C37.3676 22.645 35.8846 24 33.6475 24C31.4335 24 29.9245 22.803 29.5475 20.9399C29.5255 20.8329 29.5965 20.7269 29.7015 20.7009L29.7035 20.6999Z" fill="white"/>
<path d="M38.9486 13.4958C38.9486 13.3828 39.0406 13.2908 39.1536 13.2908H42.5257C44.9197 13.2908 46.1397 14.2998 46.1397 16.3559C46.1397 18.4119 44.8897 19.5109 42.5257 19.5109H41.2916C41.1786 19.5109 41.0866 19.6029 41.0866 19.7159V23.584C41.0866 23.697 40.9946 23.789 40.8816 23.789H39.1526C39.0396 23.789 38.9476 23.697 38.9476 23.584L38.9486 13.4958ZM42.3077 17.5909C43.3697 17.5909 43.9867 17.3049 43.9867 16.3789C43.9867 15.4979 43.4367 15.2189 42.3077 15.2189H41.2926C41.1796 15.2189 41.0876 15.3109 41.0876 15.4239V17.3859C41.0876 17.4989 41.1796 17.5909 41.2926 17.5909H42.3077Z" fill="white"/>
<path d="M47.6377 13.2918H49.3828C49.4958 13.2918 49.5878 13.3838 49.5878 13.4968V23.585C49.5878 23.698 49.4958 23.79 49.3828 23.79H47.6377C47.5247 23.79 47.4327 23.698 47.4327 23.585V13.4968C47.4327 13.3838 47.5247 13.2918 47.6377 13.2918Z" fill="white"/>
<path d="M51.3448 13.3558L53.2328 13.3268C53.3038 13.3258 53.3698 13.3618 53.4088 13.4208L57.2509 19.4349C57.3619 19.6089 57.6309 19.5279 57.6279 19.3219L57.5369 13.4638C57.5349 13.3508 57.6249 13.2578 57.7379 13.2558L59.4819 13.2288C59.5949 13.2268 59.6879 13.3168 59.6899 13.4298L59.8479 23.516C59.8499 23.629 59.7599 23.722 59.6469 23.724L57.7449 23.754C57.6739 23.755 57.6069 23.719 57.5689 23.659L53.7418 17.6269C53.6308 17.4529 53.3608 17.5329 53.3648 17.7399L53.4568 23.617C53.4588 23.73 53.3688 23.823 53.2558 23.825L51.5118 23.852C51.3988 23.854 51.3058 23.764 51.3038 23.651L51.1458 13.5648C51.1438 13.4518 51.2338 13.3588 51.3468 13.3568L51.3448 13.3558Z" fill="white"/>
<path d="M18.5375 15.9949C18.5375 15.9949 18.5295 15.9969 18.5255 15.9979C17.8695 17.8159 16.1335 19.1189 14.0895 19.1189C12.4544 19.1189 11.0144 18.2869 10.1674 17.0239C10.0744 17.0299 9.98641 17.0299 9.89941 17.0299C7.46437 17.0299 5.67835 16.7329 4.83333 16.5479C5.80935 20.76 9.5794 23.903 14.0885 23.903C19.3405 23.903 23.5926 19.6449 23.5926 14.3989V14.3059C22.2276 14.9169 20.5546 15.5109 18.5385 15.9969L18.5375 15.9949ZM8.46539 21.413C7.41737 20.573 6.55736 19.4899 5.97835 18.2819L7.55037 17.5289C8.01738 18.5029 8.71139 19.3759 9.5564 20.055L8.46639 21.414L8.46539 21.413ZM14.0895 23.389C13.4045 23.389 12.7234 23.312 12.0634 23.16L12.4544 21.461C13.5015 21.703 14.6255 21.707 15.6805 21.471L16.0605 23.172C15.4175 23.316 14.7535 23.389 14.0895 23.389ZM19.6706 21.447L18.5885 20.081C19.4375 19.4079 20.1366 18.5379 20.6096 17.5669L22.1766 18.3309C21.5886 19.5349 20.7226 20.613 19.6706 21.447Z" fill="#FF0000"/>
<path d="M27.3087 8.44878C27.1457 7.32177 26.1346 6.51376 24.9736 5.95675C23.8176 5.39874 22.5106 5.08573 21.7726 4.93973L22.0866 7.18277C22.0866 7.18277 21.0726 7.72277 20.6106 7.92678C20.1646 8.12378 19.2245 8.49178 19.2225 8.49178C17.7535 9.01379 16.1005 9.4258 14.2725 9.7218C14.2715 9.7218 14.2705 9.7218 14.2685 9.7218C14.0425 9.7568 13.8175 9.7858 13.5865 9.8198C13.0135 9.90581 11.9414 10.0048 11.9364 10.0058C10.0914 10.1858 8.38539 10.1798 6.84136 10.0058C6.83936 10.0058 6.83736 10.0058 6.83536 10.0058C6.08435 9.92581 4.68633 9.6278 4.68533 9.6278L4.37133 7.37977C3.93232 7.60277 3.14331 8.07578 3.10531 8.09978C0.921277 9.4828 -0.16474 10.9638 0.0202632 12.2888C0.389269 14.9179 5.17534 15.5239 5.63235 15.5949C5.63635 15.5949 7.26037 15.8679 9.1764 15.8679C9.1774 15.8679 11.6484 15.8979 14.3875 15.5139C17.2725 15.1089 19.2245 14.5719 20.8906 13.9659C20.8946 13.9649 22.6406 13.2749 23.0736 13.0679C25.8916 11.7198 27.5357 10.0528 27.3087 8.44878Z" fill="#FF0000"/>
<path d="M4.37233 7.37977C4.59533 7.45177 7.43037 8.14578 9.92041 8.04778C9.92941 8.04778 10.9194 8.03278 12.0284 7.92378C12.0284 7.92378 12.6114 7.86578 13.2965 7.76877C14.1705 7.64477 15.7675 7.32077 15.7675 7.32077C16.9325 7.06576 17.6905 6.82476 18.2145 6.64376C19.1845 6.30775 19.9746 5.95975 20.5966 5.62974C20.8126 5.51474 21.5946 5.06473 21.7706 4.94073L21.6286 3.95072C21.2746 1.44468 18.9545 -0.309344 16.4425 0.0456613L8.14138 1.21468C5.62935 1.56868 3.88132 3.88872 4.23632 6.40075L4.37133 7.37977H4.37233Z" fill="#FF0000"/>
</svg>
